<svg width="81" height="54" viewBox="0 0 81 54" fill="none" xmlns="http://www.w3.org/2000/svg">
<g filter="url(#filter0_d)">
<path d="M78 0L52.7277 42.7077L51.3784 44.9866L49.7926 47.6732L49.6367 47.692L41.9596 36.0138L43.3311 33.6827L53.8507 15.8846L78 0Z" fill="#100F0F"/>
</g>
<g style="mix-blend-mode:multiply" opacity="0.16">
<g style="mix-blend-mode:multiply" opacity="0.16">
<path d="M52.7277 42.7077L49.7926 47.6725L49.6367 47.6913L41.9596 36.0138L43.3304 33.6827C45.7171 35.9581 49.7356 39.8165 52.7277 42.7077Z" fill="#100F0F"/>
</g>
</g>
<path d="M36.307 27.4222L49.6365 47.6885L35.6021 49.5228L29.0682 39.5882L36.307 27.4222Z" fill="#100F0F"/>
<g style="mix-blend-mode:screen" opacity="0.3">
<g style="mix-blend-mode:screen" opacity="0.3">
<path d="M77.9993 0L52.727 42.7077L51.3778 44.9866C50.8072 45.8912 50.2213 46.7958 49.6382 47.6913C50.739 45.6595 51.8649 43.6388 52.9935 41.6188C54.1097 39.5953 55.2446 37.5817 56.3983 35.5782C58.7015 31.5695 60.9665 27.5308 63.3107 23.5402C65.63 19.5405 67.9937 15.5673 70.3423 11.585C72.2753 8.36188 74.2105 5.13783 76.1484 1.91285C74.8534 2.75481 73.5606 3.58287 72.2482 4.40326L66.1435 8.26864C64.1116 9.56756 62.0705 10.8453 60.0201 12.102C57.9716 13.3747 55.9231 14.6474 53.853 15.8874L77.9993 0Z" fill="#100F0F"/>
</g>
</g>
<g style="mix-blend-mode:screen" opacity="0.3">
<g style="mix-blend-mode:screen" opacity="0.3">
<path d="M36.3069 27.4222L48.5599 46.0526C48.6629 46.237 48.761 46.4151 48.8578 46.6037C48.2628 45.8556 47.6943 45.0903 47.1147 44.3228C46.5462 43.5574 45.9596 42.7919 45.4106 42.0161C44.8442 41.2402 44.2889 40.4664 43.735 39.6815C43.1922 38.8994 42.637 38.1256 42.0963 37.3323C41.0136 35.7551 39.9467 34.1695 38.8954 32.5756C38.0159 31.2674 37.1656 29.9315 36.3125 28.6094C35.2479 30.3257 34.1644 32.0343 33.0622 33.7349C32.4137 34.7223 31.7756 35.7117 31.0965 36.681C30.4285 37.6552 29.7688 38.6377 29.0702 39.5917L36.3069 27.4222Z" fill="#100F0F"/>
</g>
</g>
<g style="mix-blend-mode:screen" opacity="0.15">
<g style="mix-blend-mode:screen" opacity="0.15">
<path d="M55.1617 16.7815L72.1083 5.98563L52.8606 38.8396L55.1617 16.7815Z" fill="#100F0F"/>
</g>
</g>
<g style="mix-blend-mode:screen" opacity="0.15">
<g style="mix-blend-mode:screen" opacity="0.15">
<path d="M30.377 39.6196L36.3821 31.001L46.8113 45.9698L30.377 39.6196Z" fill="#100F0F"/>
</g>
</g>
<path d="M0 51.4752L25.2721 8.77027L26.6214 6.49141L28.2072 3.80479L28.363 3.786L36.0416 15.4607L34.6701 17.7911L24.1456 35.5872L0 51.4752Z" fill="#100F0F"/>
<g style="mix-blend-mode:multiply" opacity="0.16">
<g style="mix-blend-mode:multiply" opacity="0.16">
<path d="M25.2696 8.76756L28.2047 3.80207L28.3605 3.78328L36.0391 15.458L34.6676 17.7891C32.2823 15.5102 28.2617 11.6553 25.2696 8.76756Z" fill="#100F0F"/>
</g>
</g>
<path d="M41.6896 24.0495L28.3601 3.7833L42.3938 1.94907L48.9278 11.8835L41.6896 24.0495Z" fill="#100F0F"/>
<g style="mix-blend-mode:multiply" opacity="0.16">
<g style="mix-blend-mode:multiply" opacity="0.16">
<path d="M0 51.4754L25.2721 8.77111L26.6214 6.49227C27.1919 5.58768 27.7771 4.68309 28.361 3.78685C27.2594 5.8187 26.1343 7.83938 25.0056 9.86009C23.8895 11.8832 22.7546 13.8964 21.6009 15.9C19.2977 19.9087 17.0327 23.9473 14.6877 27.938C12.3692 31.9376 10.0054 35.9109 7.6563 39.8932C5.72326 43.1163 3.78814 46.3404 1.85093 49.5653C3.14588 48.7233 4.43874 47.8953 5.75109 47.0756L11.8557 43.2095C13.887 41.9107 15.9282 40.6328 17.9791 39.3761C20.0276 38.1035 22.0761 36.8308 24.1463 35.5908L0 51.4754Z" fill="#100F0F"/>
</g>
</g>
<g style="mix-blend-mode:multiply" opacity="0.3">
<g style="mix-blend-mode:multiply" opacity="0.3">
<path d="M41.6898 24.0496L29.434 5.41925C29.3317 5.23486 29.2329 5.05672 29.1369 4.86815C29.7318 5.61617 30.3003 6.38161 30.8765 7.14911C31.445 7.91453 32.0309 8.67996 32.5806 9.45581C33.147 10.2317 33.7022 11.0054 34.2561 11.7897C34.7981 12.5725 35.3542 13.3462 35.8942 14.1395C36.9778 15.7168 38.0447 17.3023 39.095 18.8962C39.9745 20.2044 40.8249 21.5404 41.678 22.8625C42.7426 21.1461 43.8257 19.4376 44.9274 17.737C45.5767 16.7496 46.2148 15.7601 46.8933 14.7908C47.5717 13.8215 48.2216 12.8341 48.9195 11.8801L41.6898 24.0496Z" fill="#100F0F"/>
</g>
</g>
<g style="mix-blend-mode:screen" opacity="0.3">
<g style="mix-blend-mode:screen" opacity="0.3">
<path d="M22.8345 34.6903L5.88879 45.4862L25.1357 12.6323C25.1357 12.6323 25.1266 13.0449 22.8345 34.6903Z" fill="#100F0F"/>
</g>
</g>
<g style="mix-blend-mode:screen" opacity="0.2">
<g style="mix-blend-mode:screen" opacity="0.2">
<path d="M47.6186 11.8522L41.6107 20.4709L31.1815 5.50198L47.6186 11.8522Z" fill="#100F0F"/>
</g>
</g>
<defs>
<filter id="filter0_d" x="39.1762" y="0" width="41.6071" height="53.2587" filterUnits="userSpaceOnUse" color-interpolation-filters="sRGB">
<feFlood flood-opacity="0" result="BackgroundImageFix"/>
<feColorMatrix in="SourceAlpha" type="matrix" values="0 0 0 0 0 0 0 0 0 0 0 0 0 0 0 0 0 0 127 0"/>
<feOffset dy="2.78335"/>
<feGaussianBlur stdDeviation="1.39168"/>
<feColorMatrix type="matrix" values="0 0 0 0 0 0 0 0 0 0 0 0 0 0 0 0 0 0 0.25 0"/>
<feBlend mode="normal" in2="BackgroundImageFix" result="effect1_dropShadow"/>
<feBlend mode="normal" in="SourceGraphic" in2="effect1_dropShadow" result="shape"/>
</filter>
</defs>
</svg>
